<svg width="32" height="32" viewBox="0 0 32 32" fill="none" xmlns="http://www.w3.org/2000/svg">
<g clip-path="url(#clip0_123_456)">
<path d="M16 30C23.732 30 30 23.732 30 16C30 8.26801 23.732 2 16 2C8.26801 2 2 8.26801 2 16C2 23.732 8.26801 30 16 30Z" fill="url(#paint0_linear_123_456)"/>
<path d="M18.6667 19.3333C18.6667 16.592 18.0693 13.9187 16.9627 11.5333C16.3867 10.3013 15.6133 10.3013 15.0373 11.5333C13.9307 13.9187 13.3333 16.592 13.3333 19.3333C13.3333 21.828 14.2827 24.1613 16 25.8C17.7173 24.1613 18.6667 21.828 18.6667 19.3333Z" stroke="white" stroke-opacity="0.8" stroke-width="1.5" stroke-linecap="round" stroke-linejoin="round"/>
<path d="M16 6V8.66667" stroke="white" stroke-opacity="0.8" stroke-width="1.5" stroke-linecap="round" stroke-linejoin="round"/>
<path d="M11.3333 19.3333C11.6373 17.0667 12.6347 14.9333 14.192 13.16" stroke="white" stroke-opacity="0.8" stroke-width="1.5" stroke-linecap="round" stroke-linejoin="round"/>
</g>
<defs>
<linearGradient id="paint0_linear_123_456" x1="2" y1="16" x2="30" y2="16" gradientUnits="userSpaceOnUse">
<stop stop-color="#E17992"/>
<stop offset="1" stop-color="#70B8C5"/>
</linearGradient>
<clipPath id="clip0_123_456">
<rect width="32" height="32" fill="white"/>
</clipPath>
</defs>
</svg>
